<svg id="visual" viewBox="0 0 540 960" width="540" height="960" xmlns="http://www.w3.org/2000/svg" xmlns:xlink="http://www.w3.org/1999/xlink" version="1.1"><rect x="0" y="0" width="540" height="960" fill="#121212"></rect><path d="M0 753L11.3 758.5C22.7 764 45.3 775 67.8 773.8C90.3 772.7 112.7 759.3 135.2 756.2C157.7 753 180.3 760 202.8 759C225.3 758 247.7 749 270.2 747.8C292.7 746.7 315.3 753.3 337.8 759.2C360.3 765 382.7 770 405.2 769.7C427.7 769.3 450.3 763.7 472.8 751.7C495.3 739.7 517.7 721.3 528.8 712.2L540 703L540 961L528.8 961C517.7 961 495.3 961 472.8 961C450.3 961 427.7 961 405.2 961C382.7 961 360.3 961 337.8 961C315.3 961 292.7 961 270.2 961C247.7 961 225.3 961 202.8 961C180.3 961 157.7 961 135.2 961C112.7 961 90.3 961 67.8 961C45.3 961 22.7 961 11.3 961L0 961Z" fill="#bb86fc"></path><path d="M0 775L11.3 774C22.7 773 45.3 771 67.8 762.5C90.3 754 112.7 739 135.2 746.2C157.7 753.3 180.3 782.7 202.8 788.7C225.3 794.7 247.7 777.3 270.2 765.2C292.7 753 315.3 746 337.8 752C360.3 758 382.7 777 405.2 785.2C427.7 793.3 450.3 790.7 472.8 781.8C495.3 773 517.7 758 528.8 750.5L540 743L540 961L528.8 961C517.7 961 495.3 961 472.8 961C450.3 961 427.7 961 405.2 961C382.7 961 360.3 961 337.8 961C315.3 961 292.7 961 270.2 961C247.7 961 225.3 961 202.8 961C180.3 961 157.7 961 135.2 961C112.7 961 90.3 961 67.8 961C45.3 961 22.7 961 11.3 961L0 961Z" fill="#63aaff"></path><path d="M0 809L11.3 802.8C22.7 796.7 45.3 784.3 67.8 780.7C90.3 777 112.7 782 135.2 793C157.7 804 180.3 821 202.8 829.7C225.3 838.3 247.7 838.7 270.2 831.5C292.7 824.3 315.3 809.7 337.8 797C360.3 784.3 382.7 773.7 405.2 774.2C427.7 774.7 450.3 786.3 472.8 787.2C495.3 788 517.7 778 528.8 773L540 768L540 961L528.8 961C517.7 961 495.3 961 472.8 961C450.3 961 427.7 961 405.2 961C382.7 961 360.3 961 337.8 961C315.3 961 292.7 961 270.2 961C247.7 961 225.3 961 202.8 961C180.3 961 157.7 961 135.2 961C112.7 961 90.3 961 67.8 961C45.3 961 22.7 961 11.3 961L0 961Z" fill="#00c1ff"></path><path d="M0 813L11.3 820.8C22.7 828.7 45.3 844.3 67.8 852.3C90.3 860.3 112.7 860.7 135.2 864.8C157.7 869 180.3 877 202.8 871.8C225.3 866.7 247.7 848.3 270.2 837.7C292.7 827 315.3 824 337.8 829.5C360.3 835 382.7 849 405.2 848.7C427.7 848.3 450.3 833.7 472.8 835.3C495.3 837 517.7 855 528.8 864L540 873L540 961L528.8 961C517.7 961 495.3 961 472.8 961C450.3 961 427.7 961 405.2 961C382.7 961 360.3 961 337.8 961C315.3 961 292.7 961 270.2 961C247.7 961 225.3 961 202.8 961C180.3 961 157.7 961 135.2 961C112.7 961 90.3 961 67.8 961C45.3 961 22.7 961 11.3 961L0 961Z" fill="#00d0eb"></path><path d="M0 926L11.3 925.5C22.7 925 45.3 924 67.8 917.2C90.3 910.3 112.7 897.7 135.2 897.7C157.7 897.7 180.3 910.3 202.8 912.7C225.3 915 247.7 907 270.2 904.8C292.7 902.7 315.3 906.3 337.8 905.3C360.3 904.3 382.7 898.7 405.2 897.5C427.7 896.3 450.3 899.7 472.8 902.2C495.3 904.7 517.7 906.3 528.8 907.2L540 908L540 961L528.8 961C517.7 961 495.3 961 472.8 961C450.3 961 427.7 961 405.2 961C382.7 961 360.3 961 337.8 961C315.3 961 292.7 961 270.2 961C247.7 961 225.3 961 202.8 961C180.3 961 157.7 961 135.2 961C112.7 961 90.3 961 67.8 961C45.3 961 22.7 961 11.3 961L0 961Z" fill="#03dac6"></path></svg>