<svg id="visual" viewBox="0 0 900 600" width="900" height="600" xmlns="http://www.w3.org/2000/svg" xmlns:xlink="http://www.w3.org/1999/xlink" version="1.1"><rect x="0" y="0" width="900" height="600" fill="#121212"></rect><path d="M0 503L18.8 505.5C37.7 508 75.3 513 112.8 512.3C150.3 511.7 187.7 505.3 225.2 503.8C262.7 502.3 300.3 505.7 337.8 505.2C375.3 504.7 412.7 500.3 450.2 499.8C487.7 499.3 525.3 502.7 562.8 505.5C600.3 508.3 637.7 510.7 675.2 510.5C712.7 510.3 750.3 507.7 787.8 502C825.3 496.3 862.7 487.7 881.3 483.3L900 479L900 601L881.3 601C862.7 601 825.3 601 787.8 601C750.3 601 712.7 601 675.2 601C637.7 601 600.3 601 562.8 601C525.3 601 487.7 601 450.2 601C412.7 601 375.3 601 337.8 601C300.3 601 262.7 601 225.2 601C187.7 601 150.3 601 112.8 601C75.3 601 37.7 601 18.8 601L0 601Z" fill="#bb86fc"></path><path d="M0 513L18.8 512.5C37.7 512 75.3 511 112.8 507C150.3 503 187.7 496 225.2 499.3C262.7 502.7 300.3 516.3 337.8 519.2C375.3 522 412.7 514 450.2 508.3C487.7 502.7 525.3 499.3 562.8 502.2C600.3 505 637.7 514 675.2 517.8C712.7 521.7 750.3 520.3 787.8 516.2C825.3 512 862.7 505 881.3 501.5L900 498L900 601L881.3 601C862.7 601 825.3 601 787.8 601C750.3 601 712.7 601 675.2 601C637.7 601 600.3 601 562.8 601C525.3 601 487.7 601 450.2 601C412.7 601 375.3 601 337.8 601C300.3 601 262.7 601 225.2 601C187.7 601 150.3 601 112.8 601C75.3 601 37.7 601 18.8 601L0 601Z" fill="#63aaff"></path><path d="M0 528L18.8 525.2C37.7 522.3 75.3 516.7 112.8 515.2C150.3 513.7 187.7 516.3 225.2 521.5C262.7 526.7 300.3 534.3 337.8 538.3C375.3 542.3 412.7 542.7 450.2 539.3C487.7 536 525.3 529 562.8 523C600.3 517 637.7 512 675.2 512.3C712.7 512.7 750.3 518.3 787.8 518.8C825.3 519.3 862.7 514.7 881.3 512.3L900 510L900 601L881.3 601C862.7 601 825.3 601 787.8 601C750.3 601 712.7 601 675.2 601C637.7 601 600.3 601 562.8 601C525.3 601 487.7 601 450.2 601C412.7 601 375.3 601 337.8 601C300.3 601 262.7 601 225.2 601C187.7 601 150.3 601 112.8 601C75.3 601 37.7 601 18.8 601L0 601Z" fill="#00c1ff"></path><path d="M0 530L18.8 533.8C37.7 537.7 75.3 545.3 112.8 549.2C150.3 553 187.7 553 225.2 554.8C262.7 556.7 300.3 560.3 337.8 557.8C375.3 555.3 412.7 546.7 450.2 541.7C487.7 536.7 525.3 535.3 562.8 538C600.3 540.7 637.7 547.3 675.2 547.3C712.7 547.3 750.3 540.7 787.8 541.5C825.3 542.3 862.7 550.7 881.3 554.8L900 559L900 601L881.3 601C862.7 601 825.3 601 787.8 601C750.3 601 712.7 601 675.2 601C637.7 601 600.3 601 562.8 601C525.3 601 487.7 601 450.2 601C412.7 601 375.3 601 337.8 601C300.3 601 262.7 601 225.2 601C187.7 601 150.3 601 112.8 601C75.3 601 37.7 601 18.8 601L0 601Z" fill="#00d0eb"></path><path d="M0 583L18.8 582.8C37.7 582.7 75.3 582.3 112.8 579.2C150.3 576 187.7 570 225.2 570C262.7 570 300.3 576 337.8 577.2C375.3 578.3 412.7 574.7 450.2 573.7C487.7 572.7 525.3 574.3 562.8 573.8C600.3 573.3 637.7 570.7 675.2 570.2C712.7 569.7 750.3 571.3 787.8 572.5C825.3 573.7 862.7 574.3 881.3 574.7L900 575L900 601L881.3 601C862.7 601 825.3 601 787.8 601C750.3 601 712.7 601 675.2 601C637.7 601 600.3 601 562.8 601C525.3 601 487.7 601 450.2 601C412.7 601 375.3 601 337.8 601C300.3 601 262.7 601 225.2 601C187.7 601 150.3 601 112.8 601C75.3 601 37.7 601 18.8 601L0 601Z" fill="#03dac6"></path></svg>